<?xml version="1.0" standalone="no"?>
<!DOCTYPE svg PUBLIC "-//W3C//DTD SVG 20010904//EN"
 "http://www.w3.org/TR/2001/REC-SVG-20010904/DTD/svg10.dtd">
<svg version="1.0" xmlns="http://www.w3.org/2000/svg"
 width="180.000000pt" height="180.000000pt" viewBox="0 0 180.000000 180.000000"
 preserveAspectRatio="xMidYMid meet">
<metadata>
Created by potrace 1.14, written by Peter Selinger 2001-2017
</metadata>
<g transform="translate(0.000000,180.000000) scale(0.100000,-0.100000)"
fill="#000000" stroke="none">
<path d="M789 1795 c-3 -2 -23 -7 -45 -9 -102 -13 -245 -72 -359 -149 -186
-125 -335 -360 -372 -585 -13 -80 -7 -281 11 -355 38 -161 125 -316 243 -433
111 -112 251 -192 411 -236 102 -28 323 -30 425 -5 329 82 580 328 669 654 27
103 30 324 5 426 -65 264 -236 479 -475 600 -123 62 -228 88 -383 93 -69 2
-128 2 -130 -1z"/>
</g>
</svg>
